<svg width="48" height="48" viewBox="0 0 48 48" fill="none" xmlns="http://www.w3.org/2000/svg">
<path d="M39 3H9C8.17031 3 7.5 3.67031 7.5 4.5V43.5C7.5 44.3297 8.17031 45 9 45H39C39.8297 45 40.5 44.3297 40.5 43.5V4.5C40.5 3.67031 39.8297 3 39 3ZM10.875 6.375H37.125V16.125H10.875V6.375ZM37.125 28.875H10.875V19.125H37.125V28.875ZM37.125 41.625H10.875V31.875H37.125V41.625ZM14.25 11.25C14.25 11.7473 14.4475 12.2242 14.7992 12.5758C15.1508 12.9275 15.6277 13.125 16.125 13.125C16.6223 13.125 17.0992 12.9275 17.4508 12.5758C17.8025 12.2242 18 11.7473 18 11.25C18 10.7527 17.8025 10.2758 17.4508 9.92417C17.0992 9.57254 16.6223 9.375 16.125 9.375C15.6277 9.375 15.1508 9.57254 14.7992 9.92417C14.4475 10.2758 14.25 10.7527 14.25 11.25ZM14.25 24C14.25 24.4973 14.4475 24.9742 14.7992 25.3258C15.1508 25.6775 15.6277 25.875 16.125 25.875C16.6223 25.875 17.0992 25.6775 17.4508 25.3258C17.8025 24.9742 18 24.4973 18 24C18 23.5027 17.8025 23.0258 17.4508 22.6742C17.0992 22.3225 16.6223 22.125 16.125 22.125C15.6277 22.125 15.1508 22.3225 14.7992 22.6742C14.4475 23.0258 14.25 23.5027 14.25 24ZM14.25 36.75C14.25 37.2473 14.4475 37.7242 14.7992 38.0758C15.1508 38.4275 15.6277 38.625 16.125 38.625C16.6223 38.625 17.0992 38.4275 17.4508 38.0758C17.8025 37.7242 18 37.2473 18 36.75C18 36.2527 17.8025 35.7758 17.4508 35.4242C17.0992 35.0725 16.6223 34.875 16.125 34.875C15.6277 34.875 15.1508 35.0725 14.7992 35.4242C14.4475 35.7758 14.25 36.2527 14.25 36.75Z" fill="#1890FF"/>
</svg>
