<svg width="48" height="48" viewBox="0 0 48 48" fill="none" xmlns="http://www.w3.org/2000/svg">
<path d="M42.5673 16.5493L30.6658 14.8196L25.3455 4.03369C25.2001 3.73837 24.9611 3.49931 24.6658 3.354C23.9251 2.98837 23.0251 3.29306 22.6548 4.03369L17.3345 14.8196L5.43296 16.5493C5.10484 16.5962 4.80484 16.7509 4.57515 16.9853C4.29747 17.2707 4.14446 17.6546 4.14973 18.0528C4.155 18.451 4.31813 18.8307 4.60327 19.1087L13.2142 27.504L11.1798 39.3587C11.1321 39.6345 11.1626 39.9181 11.2679 40.1774C11.3732 40.4367 11.549 40.6613 11.7755 40.8258C12.0019 40.9902 12.2699 41.0879 12.5491 41.1079C12.8282 41.1278 13.1074 41.069 13.3548 40.9384L24.0001 35.3415L34.6455 40.9384C34.9361 41.0931 35.2736 41.1446 35.597 41.0884C36.4127 40.9478 36.9611 40.1743 36.8205 39.3587L34.7861 27.504L43.397 19.1087C43.6314 18.879 43.7861 18.579 43.833 18.2509C43.9595 17.4306 43.3876 16.6712 42.5673 16.5493ZM31.1626 26.3228L32.8548 36.1806L24.0001 31.5306L15.1455 36.1852L16.8376 26.3274L9.67515 19.3431L19.5751 17.904L24.0001 8.93681L28.4252 17.904L38.3251 19.3431L31.1626 26.3228Z" fill="#1890FF"/>
</svg>
