<svg width="48" height="48" viewBox="0 0 48 48" fill="none" xmlns="http://www.w3.org/2000/svg">
<path d="M35.8125 13.1672C35.1562 11.7328 34.2234 10.4438 33.0328 9.34219C30.6141 7.09688 27.4031 5.85938 24 5.85938C20.5969 5.85938 17.3859 7.09687 14.9672 9.3375C13.7766 10.4437 12.8438 11.7281 12.1875 13.1672C11.5031 14.6672 11.1562 16.2562 11.1562 17.8969V19.1625C11.1562 19.4531 11.3906 19.6875 11.6812 19.6875H14.2125C14.5031 19.6875 14.7375 19.4531 14.7375 19.1625V17.8969C14.7375 13.2328 18.8906 9.44062 24 9.44062C29.1094 9.44062 33.2625 13.2328 33.2625 17.8969C33.2625 19.8094 32.5828 21.6094 31.2937 23.1094C30.0187 24.5953 28.2188 25.6594 26.2266 26.1094C25.0875 26.3672 24.0609 27.0094 23.3344 27.9281C22.6103 28.8437 22.2157 29.9765 22.2141 31.1438V32.6156C22.2141 32.9062 22.4484 33.1406 22.7391 33.1406H25.2703C25.5609 33.1406 25.7953 32.9062 25.7953 32.6156V31.1438C25.7953 30.4078 26.3062 29.7609 27.0141 29.6016C29.7516 28.9828 32.2359 27.5062 34.0125 25.4437C34.9078 24.3984 35.6063 23.2359 36.0891 21.975C36.5906 20.6672 36.8438 19.2937 36.8438 17.8969C36.8438 16.2562 36.4969 14.6625 35.8125 13.1672ZM24 36.8906C22.5516 36.8906 21.375 38.0672 21.375 39.5156C21.375 40.9641 22.5516 42.1406 24 42.1406C25.4484 42.1406 26.625 40.9641 26.625 39.5156C26.625 38.0672 25.4484 36.8906 24 36.8906Z" fill="#1890FF"/>
</svg>
