<svg width="48" height="48" viewBox="0 0 48 48" fill="none" xmlns="http://www.w3.org/2000/svg">
<path d="M40.0594 13.5281L29.9719 3.44063C29.6906 3.15938 29.3109 3 28.9125 3H9C8.17031 3 7.5 3.67031 7.5 4.5V43.5C7.5 44.3297 8.17031 45 9 45H39C39.8297 45 40.5 44.3297 40.5 43.5V14.5922C40.5 14.1937 40.3406 13.8094 40.0594 13.5281ZM37.0406 15.2812H28.2188V6.45938L37.0406 15.2812ZM37.125 41.625H10.875V6.375H25.0312V16.5C25.0312 17.0221 25.2387 17.5229 25.6079 17.8921C25.9771 18.2613 26.4779 18.4688 27 18.4688H37.125V41.625Z" fill="#1890FF"/>
</svg>
