<svg width="48" height="48" viewBox="0 0 48 48" fill="none" xmlns="http://www.w3.org/2000/svg">
<path d="M41.5266 25.0188C42.3141 23.9782 42.75 22.7032 42.75 21.3766C42.75 19.2719 41.5734 17.2797 39.6797 16.1688C39.1922 15.8828 38.6371 15.7323 38.0719 15.7329H26.8313L27.1125 9.97192C27.1781 8.57973 26.6859 7.25786 25.7297 6.25005C25.2604 5.7533 24.6942 5.35808 24.0662 5.08879C23.4381 4.8195 22.7615 4.68188 22.0781 4.68442C19.6406 4.68442 17.4844 6.32505 16.8375 8.67348L12.8109 23.2516H6.75C5.92031 23.2516 5.25 23.9219 5.25 24.7516V41.8141C5.25 42.6438 5.92031 43.3141 6.75 43.3141H34.9359C35.3672 43.3141 35.7891 43.2297 36.1781 43.061C38.4094 42.1094 39.8484 39.9297 39.8484 37.511C39.8484 36.9204 39.7641 36.3391 39.5953 35.7766C40.3828 34.736 40.8187 33.461 40.8187 32.1344C40.8187 31.5438 40.7344 30.9625 40.5656 30.4C41.3531 29.3594 41.7891 28.0844 41.7891 26.7579C41.7797 26.1672 41.6953 25.5813 41.5266 25.0188ZM8.625 39.9391V26.6266H12.4219V39.9391H8.625ZM38.4563 23.3922L37.4297 24.2829L38.0813 25.4735C38.2959 25.8657 38.4072 26.3061 38.4047 26.7532C38.4047 27.5266 38.0672 28.2625 37.4859 28.7688L36.4594 29.6594L37.1109 30.85C37.3256 31.2423 37.4369 31.6826 37.4344 32.1297C37.4344 32.9032 37.0969 33.6391 36.5156 34.1454L35.4891 35.036L36.1406 36.2266C36.3553 36.6188 36.4666 37.0592 36.4641 37.5063C36.4641 38.5563 35.8453 39.5032 34.8891 39.9344H15.4219V26.4766L20.0859 9.57817C20.2062 9.14505 20.4644 8.76293 20.8213 8.48972C21.1783 8.2165 21.6146 8.06709 22.0641 8.06411C22.4203 8.06411 22.7719 8.16723 23.0531 8.37817C23.5172 8.72505 23.7656 9.25005 23.7375 9.80786L23.2875 19.1079H38.025C38.8594 19.6188 39.375 20.4813 39.375 21.3766C39.375 22.15 39.0375 22.8813 38.4563 23.3922Z" fill="#1890FF"/>
</svg>
