<svg width="48" height="48" viewBox="0 0 48 48" fill="none" xmlns="http://www.w3.org/2000/svg">
<path d="M39.0984 21.9945C38.1884 19.9464 36.8655 18.108 35.2125 16.5945L33.8484 15.343C33.8021 15.3016 33.7464 15.2723 33.6861 15.2576C33.6258 15.2428 33.5628 15.2431 33.5026 15.2583C33.4425 15.2736 33.387 15.3034 33.341 15.3452C33.2951 15.3869 33.2601 15.4393 33.2391 15.4977L32.6297 17.2461C32.25 18.343 31.5516 19.4633 30.5625 20.5649C30.4969 20.6352 30.4219 20.6539 30.3703 20.6586C30.3188 20.6633 30.2391 20.6539 30.1687 20.5883C30.1031 20.532 30.0703 20.4477 30.075 20.3633C30.2484 17.5414 29.4047 14.3586 27.5578 10.8945C26.0297 8.01641 23.9062 5.7711 21.2531 4.20548L19.3172 3.06641C19.0641 2.91641 18.7406 3.11329 18.7547 3.4086L18.8578 5.6586C18.9281 7.1961 18.75 8.55548 18.3281 9.68516C17.8125 11.068 17.0719 12.3524 16.125 13.5055C15.466 14.3069 14.7192 15.0317 13.8984 15.6664C11.9217 17.1859 10.3144 19.133 9.19687 21.3617C8.08207 23.6099 7.50136 26.0851 7.5 28.5945C7.5 30.807 7.93594 32.9492 8.79844 34.9695C9.63125 36.9147 10.8331 38.68 12.3375 40.168C13.8563 41.668 15.6188 42.8492 17.5828 43.6695C19.6172 44.5227 21.7734 44.9539 24 44.9539C26.2266 44.9539 28.3828 44.5227 30.4172 43.6742C32.3764 42.8587 34.158 41.6694 35.6625 40.1727C37.1812 38.6727 38.3719 36.9195 39.2016 34.9742C40.0628 32.9594 40.5046 30.7903 40.5 28.5992C40.5 26.3117 40.0312 24.0899 39.0984 21.9945ZM33.4219 37.8992C30.9047 40.393 27.5625 41.7617 24 41.7617C20.4375 41.7617 17.0953 40.393 14.5781 37.8992C12.0703 35.4102 10.6875 32.1102 10.6875 28.5992C10.6875 26.5602 11.1469 24.6055 12.0516 22.7867C12.9328 21.0102 14.2453 19.4211 15.8391 18.1977C16.8555 17.4204 17.7774 16.5269 18.5859 15.5352C19.7578 14.1055 20.6766 12.5117 21.3141 10.8008C21.5756 10.095 21.7656 9.36481 21.8812 8.6211C23.0109 9.66173 23.9578 10.918 24.75 12.3899C26.3156 15.3242 27.0375 17.9352 26.8969 20.157C26.8633 20.6803 26.9487 21.2044 27.1468 21.6899C27.3449 22.1755 27.6505 22.6097 28.0406 22.9602C28.3787 23.2655 28.774 23.5007 29.2038 23.652C29.6335 23.8033 30.0889 23.8677 30.5437 23.8414C31.4672 23.7945 32.3156 23.3867 32.9344 22.6977C33.5578 21.9992 34.0969 21.2867 34.5469 20.5602C35.2031 21.3992 35.7516 22.3133 36.1875 23.2977C36.9328 24.9758 37.3125 26.7617 37.3125 28.5992C37.3125 32.1102 35.9297 35.4149 33.4219 37.8992Z" fill="#1890FF"/>
</svg>
