<svg width="48" height="48" viewBox="0 0 48 48" fill="none" xmlns="http://www.w3.org/2000/svg">
<path d="M21.7504 24C21.7504 24.5967 21.9874 25.169 22.4094 25.591C22.8313 26.0129 23.4036 26.25 24.0004 26.25C24.5971 26.25 25.1694 26.0129 25.5913 25.591C26.0133 25.169 26.2504 24.5967 26.2504 24C26.2504 23.4033 26.0133 22.831 25.5913 22.409C25.1694 21.9871 24.5971 21.75 24.0004 21.75C23.4036 21.75 22.8313 21.9871 22.4094 22.409C21.9874 22.831 21.7504 23.4033 21.7504 24ZM31.1254 24C31.1254 24.5967 31.3624 25.169 31.7844 25.591C32.2063 26.0129 32.7786 26.25 33.3754 26.25C33.9721 26.25 34.5444 26.0129 34.9663 25.591C35.3883 25.169 35.6254 24.5967 35.6254 24C35.6254 23.4033 35.3883 22.831 34.9663 22.409C34.5444 21.9871 33.9721 21.75 33.3754 21.75C32.7786 21.75 32.2063 21.9871 31.7844 22.409C31.3624 22.831 31.1254 23.4033 31.1254 24ZM12.3754 24C12.3754 24.5967 12.6124 25.169 13.0344 25.591C13.4563 26.0129 14.0286 26.25 14.6254 26.25C15.2221 26.25 15.7944 26.0129 16.2163 25.591C16.6383 25.169 16.8754 24.5967 16.8754 24C16.8754 23.4033 16.6383 22.831 16.2163 22.409C15.7944 21.9871 15.2221 21.75 14.6254 21.75C14.0286 21.75 13.4563 21.9871 13.0344 22.409C12.6124 22.831 12.3754 23.4033 12.3754 24ZM43.3691 15.8625C42.3097 13.3453 40.791 11.0859 38.855 9.14531C36.9327 7.21592 34.6505 5.68229 32.1379 4.63125C29.5597 3.54844 26.8222 3 24.0004 3H23.9066C21.066 3.01406 18.3144 3.57656 15.7269 4.68281C13.2358 5.74463 10.975 7.28099 9.07067 9.20625C7.15348 11.1422 5.6488 13.3922 4.60817 15.9C3.53005 18.4969 2.98629 21.2578 3.00036 24.0984C3.01626 27.3538 3.78641 30.5611 5.25036 33.4688V40.5938C5.25036 41.1656 5.47753 41.7141 5.88191 42.1185C6.28628 42.5228 6.83473 42.75 7.40661 42.75H14.5363C17.4439 44.2139 20.6513 44.9841 23.9066 45H24.005C26.8129 45 29.5363 44.4562 32.1004 43.3922C34.6003 42.3537 36.874 40.8379 38.7941 38.9297C40.73 37.0125 42.2535 34.7719 43.3175 32.2734C44.4238 29.6859 44.9863 26.9344 45.0004 24.0938C45.0144 21.2391 44.4613 18.4688 43.3691 15.8625ZM36.2863 36.3938C33.0004 39.6469 28.641 41.4375 24.0004 41.4375H23.9207C21.0941 41.4234 18.2863 40.7203 15.8066 39.3984L15.4129 39.1875H8.81286V32.5875L8.60192 32.1937C7.28005 29.7141 6.57692 26.9062 6.56286 24.0797C6.54411 19.4062 8.33005 15.0187 11.6066 11.7141C14.8785 8.40937 19.2519 6.58125 23.9254 6.5625H24.005C26.3488 6.5625 28.6222 7.01719 30.7644 7.91719C32.855 8.79375 34.73 10.0547 36.3425 11.6672C37.9504 13.275 39.216 15.1547 40.0925 17.2453C41.0019 19.4109 41.4566 21.7078 41.4472 24.0797C41.4191 28.7484 39.5863 33.1219 36.2863 36.3938Z" fill="#1890FF"/>
</svg>
