<svg width="48" height="48" viewBox="0 0 48 48" fill="none" xmlns="http://www.w3.org/2000/svg">
<path d="M31.7942 30.1125C32.9286 29.5031 34.2271 29.1562 35.6099 29.1562H35.6146C35.7552 29.1562 35.8208 28.9875 35.7177 28.8938C34.2796 27.6032 32.6369 26.5608 30.8567 25.8094C30.838 25.8 30.8192 25.7953 30.8005 25.7859C33.7114 23.6719 35.6052 20.2359 35.6052 16.3594C35.6052 9.9375 30.4114 4.73438 24.0036 4.73438C17.5958 4.73438 12.4067 9.9375 12.4067 16.3594C12.4067 20.2359 14.3005 23.6719 17.2161 25.7859C17.1974 25.7953 17.1786 25.8 17.1599 25.8094C15.0646 26.6953 13.1849 27.9656 11.5677 29.5875C9.95983 31.1924 8.67977 33.095 7.79893 35.1891C6.93227 37.2397 6.46454 39.4367 6.4208 41.6625C6.41955 41.7125 6.42833 41.7623 6.44661 41.8089C6.4649 41.8555 6.49232 41.8979 6.52727 41.9337C6.56221 41.9696 6.60398 41.998 6.6501 42.0175C6.69622 42.0369 6.74576 42.0469 6.7958 42.0469H9.60361C9.80518 42.0469 9.97393 41.8828 9.97861 41.6813C10.0724 38.0625 11.5208 34.6734 14.0849 32.1047C16.7333 29.4469 20.2583 27.9844 24.0083 27.9844C26.6661 27.9844 29.2161 28.7203 31.4146 30.0984C31.471 30.1339 31.5359 30.1539 31.6025 30.1564C31.6692 30.1588 31.7353 30.1437 31.7942 30.1125ZM24.0083 24.4219C21.8614 24.4219 19.8411 23.5828 18.3177 22.0594C17.5681 21.3118 16.9739 20.4232 16.5692 19.445C16.1646 18.4667 15.9575 17.418 15.9599 16.3594C15.9599 14.2078 16.7989 12.1828 18.3177 10.6594C19.8364 9.13594 21.8567 8.29688 24.0083 8.29688C26.1599 8.29688 28.1755 9.13594 29.6989 10.6594C30.4485 11.407 31.0427 12.2955 31.4474 13.2738C31.852 14.2521 32.0591 15.3007 32.0567 16.3594C32.0567 18.5109 31.2177 20.5359 29.6989 22.0594C28.1755 23.5828 26.1552 24.4219 24.0083 24.4219ZM41.2489 35.5781H37.3114V31.6406C37.3114 31.4344 37.1427 31.2656 36.9364 31.2656H34.3114C34.1052 31.2656 33.9364 31.4344 33.9364 31.6406V35.5781H29.9989C29.7927 35.5781 29.6239 35.7469 29.6239 35.9531V38.5781C29.6239 38.7844 29.7927 38.9531 29.9989 38.9531H33.9364V42.8906C33.9364 43.0969 34.1052 43.2656 34.3114 43.2656H36.9364C37.1427 43.2656 37.3114 43.0969 37.3114 42.8906V38.9531H41.2489C41.4552 38.9531 41.6239 38.7844 41.6239 38.5781V35.9531C41.6239 35.7469 41.4552 35.5781 41.2489 35.5781Z" fill="#1890FF"/>
</svg>
