<svg width="48" height="48" viewBox="0 0 48 48" fill="none" xmlns="http://www.w3.org/2000/svg">
<path d="M41.8122 36.1874H38.0622V32.4374C38.0622 32.2312 37.8935 32.0624 37.6872 32.0624H35.4372C35.231 32.0624 35.0622 32.2312 35.0622 32.4374V36.1874H31.3122C31.106 36.1874 30.9372 36.3562 30.9372 36.5624V38.8124C30.9372 39.0187 31.106 39.1874 31.3122 39.1874H35.0622V42.9374C35.0622 43.1437 35.231 43.3124 35.4372 43.3124H37.6872C37.8935 43.3124 38.0622 43.1437 38.0622 42.9374V39.1874H41.8122C42.0185 39.1874 42.1872 39.0187 42.1872 38.8124V36.5624C42.1872 36.3562 42.0185 36.1874 41.8122 36.1874ZM17.5075 23.3624C17.4653 22.9546 17.4419 22.5421 17.4419 22.1249C17.4419 21.3796 17.5122 20.6531 17.6435 19.9453C17.6763 19.7765 17.5872 19.6031 17.4325 19.5328C16.795 19.2468 16.2091 18.8531 15.7028 18.3562C15.1063 17.7778 14.6369 17.0814 14.3245 16.3114C14.0122 15.5415 13.8638 14.7148 13.8888 13.8843C13.931 12.3796 14.5356 10.9499 15.5903 9.87182C16.7481 8.68588 18.3044 8.039 19.9591 8.05775C21.4544 8.07181 22.8981 8.64838 23.9903 9.67025C24.3606 10.0171 24.6794 10.4015 24.9466 10.814C25.0403 10.9593 25.2231 11.0203 25.3825 10.964C26.2075 10.6781 27.0794 10.4765 27.9747 10.3828C28.2372 10.3546 28.3872 10.0734 28.27 9.839C26.7466 6.82494 23.6341 4.74369 20.0341 4.68744C14.8403 4.60775 10.5091 8.86869 10.5091 14.0624C10.5091 17.0062 11.8638 19.6312 13.9872 21.3515C12.4966 22.0406 11.1231 22.9921 9.93251 24.1828C7.36376 26.7468 5.91064 30.1312 5.81689 33.7453C5.81564 33.7953 5.82441 33.8451 5.8427 33.8916C5.86098 33.9382 5.88841 33.9807 5.92335 34.0165C5.9583 34.0523 6.00007 34.0808 6.04618 34.1002C6.0923 34.1196 6.14185 34.1296 6.19189 34.1296H8.82158C9.02314 34.1296 9.19189 33.9703 9.19658 33.7687C9.28564 31.0499 10.3872 28.5046 12.3231 26.5734C13.7013 25.1953 15.3888 24.239 17.231 23.7749C17.4091 23.7234 17.531 23.5499 17.5075 23.3624ZM38.6247 22.1249C38.6247 16.9968 34.5044 12.8296 29.395 12.7499C24.2013 12.6703 19.8747 16.9312 19.8747 22.1249C19.8747 25.0687 21.2341 27.6937 23.3528 29.414C21.8468 30.1121 20.4757 31.0706 19.3028 32.2453C16.7341 34.8093 15.281 38.1937 15.1872 41.8031C15.186 41.8531 15.1947 41.9029 15.213 41.9495C15.2313 41.996 15.2587 42.0385 15.2937 42.0743C15.3286 42.1101 15.3704 42.1386 15.4165 42.158C15.4626 42.1775 15.5122 42.1875 15.5622 42.1874H18.1872C18.3888 42.1874 18.5575 42.0281 18.5622 41.8265C18.6513 39.1077 19.7528 36.5624 21.6888 34.6312C23.7091 32.6109 26.3903 31.4999 29.2497 31.4999C34.4247 31.4999 38.6247 27.3046 38.6247 22.1249ZM33.4919 26.3671C32.3575 27.5015 30.8528 28.1249 29.2497 28.1249C27.6466 28.1249 26.1419 27.5015 25.0075 26.3671C24.4414 25.804 23.9942 25.133 23.6922 24.3938C23.3903 23.6547 23.2398 22.8624 23.2497 22.064C23.2638 20.5265 23.8778 19.0406 24.9513 17.939C26.0763 16.7859 27.581 16.1437 29.1888 16.1249C30.7778 16.1109 32.32 16.7296 33.4544 17.8406C34.6169 18.9796 35.2544 20.5031 35.2544 22.1249C35.2497 23.7281 34.6263 25.2328 33.4919 26.3671Z" fill="#1890FF"/>
</svg>
