<svg width="48" height="48" viewBox="0 0 48 48" fill="none" xmlns="http://www.w3.org/2000/svg">
<path d="M13.125 35.25H16.875C17.0813 35.25 17.25 35.0812 17.25 34.875V13.125C17.25 12.9187 17.0813 12.75 16.875 12.75H13.125C12.9187 12.75 12.75 12.9187 12.75 13.125V34.875C12.75 35.0812 12.9187 35.25 13.125 35.25ZM22.125 22.125H25.875C26.0812 22.125 26.25 21.9562 26.25 21.75V13.125C26.25 12.9187 26.0812 12.75 25.875 12.75H22.125C21.9188 12.75 21.75 12.9187 21.75 13.125V21.75C21.75 21.9562 21.9188 22.125 22.125 22.125ZM31.125 25.5H34.875C35.0812 25.5 35.25 25.3312 35.25 25.125V13.125C35.25 12.9187 35.0812 12.75 34.875 12.75H31.125C30.9188 12.75 30.75 12.9187 30.75 13.125V25.125C30.75 25.3312 30.9188 25.5 31.125 25.5ZM41.25 5.25H6.75C5.92031 5.25 5.25 5.92031 5.25 6.75V41.25C5.25 42.0797 5.92031 42.75 6.75 42.75H41.25C42.0797 42.75 42.75 42.0797 42.75 41.25V6.75C42.75 5.92031 42.0797 5.25 41.25 5.25ZM39.375 39.375H8.625V8.625H39.375V39.375Z" fill="#1890FF"/>
</svg>
