<svg width="48" height="48" viewBox="0 0 48 48" fill="none" xmlns="http://www.w3.org/2000/svg">
<path d="M41.1689 18.3797L29.6189 6.82969C29.3143 6.525 28.9158 6.375 28.5174 6.375C28.1189 6.375 27.7205 6.525 27.4158 6.82969L19.8643 14.3859C19.2924 14.3203 18.7158 14.2922 18.1393 14.2922C14.708 14.2922 11.2768 15.4219 8.45957 17.6813C8.28897 17.8182 8.14914 17.9896 8.04919 18.1842C7.94924 18.3789 7.89142 18.5924 7.87948 18.8108C7.86754 19.0293 7.90175 19.2478 7.97989 19.4522C8.05804 19.6565 8.17835 19.8421 8.333 19.9969L16.8502 28.5141L6.75332 38.6016C6.62959 38.7245 6.55323 38.8872 6.53769 39.0609L6.37832 40.8047C6.33613 41.2453 6.68769 41.6203 7.12363 41.6203C7.14707 41.6203 7.1705 41.6203 7.19394 41.6156L8.93769 41.4563C9.11113 41.4422 9.27519 41.3625 9.39707 41.2406L19.4939 31.1438L28.0111 39.6609C28.3158 39.9656 28.7143 40.1156 29.1127 40.1156C29.5674 40.1156 30.0174 39.9188 30.3268 39.5344C32.9658 36.2391 34.0627 32.1141 33.6174 28.125L41.1689 20.5734C41.7736 19.9734 41.7736 18.9891 41.1689 18.3797ZM31.2268 25.7484L30.0783 26.8969L30.2564 28.5094C30.5358 31.0034 30.0381 33.5229 28.8314 35.7234L12.2799 19.1625C12.8846 18.8297 13.5127 18.5484 14.1689 18.3234C15.4439 17.8828 16.7799 17.6625 18.1393 17.6625C18.5893 17.6625 19.0439 17.6859 19.4939 17.7375L21.1064 17.9156L22.2549 16.7672L28.5221 10.5L37.4986 19.4766L31.2268 25.7484Z" fill="#1890FF"/>
</svg>
