<svg width="24" height="24" viewBox="0 0 24 24" fill="none" xmlns="http://www.w3.org/2000/svg">
<path d="M19.3163 16.4035C18.7296 15.8164 18.0442 15.3372 17.2913 14.9879C18.353 14.1277 19.0303 12.8152 19.0303 11.3433C19.0303 8.74645 16.8647 6.61598 14.2678 6.65582C11.7108 6.69567 9.65064 8.77926 9.65064 11.3433C9.65064 12.8152 10.3303 14.1277 11.3897 14.9879C10.6367 15.3369 9.95116 15.8161 9.36471 16.4035C8.08502 17.6855 7.35846 19.3777 7.31158 21.1824C7.31096 21.2074 7.31534 21.2323 7.32449 21.2556C7.33363 21.2789 7.34734 21.3001 7.36481 21.318C7.38229 21.3359 7.40317 21.3502 7.42623 21.3599C7.44929 21.3696 7.47406 21.3746 7.49908 21.3746H8.81158C8.91236 21.3746 8.99674 21.2949 8.99908 21.1941C9.04361 19.8347 9.5944 18.5621 10.5624 17.5964C11.0577 17.0985 11.6469 16.7037 12.2958 16.435C12.9447 16.1662 13.6405 16.0289 14.3428 16.0308C15.7702 16.0308 17.1131 16.5863 18.1233 17.5964C19.0889 18.5621 19.6397 19.8347 19.6866 21.1941C19.6889 21.2949 19.7733 21.3746 19.8741 21.3746H21.1866C21.2116 21.3746 21.2364 21.3696 21.2594 21.3599C21.2825 21.3502 21.3034 21.3359 21.3209 21.318C21.3383 21.3001 21.352 21.2789 21.3612 21.2556C21.3703 21.2323 21.3747 21.2074 21.3741 21.1824C21.3272 19.3777 20.6006 17.6855 19.3163 16.4035ZM14.3428 14.3433C13.5413 14.3433 12.7866 14.0316 12.2217 13.4644C11.9383 13.1832 11.7144 12.8477 11.5633 12.4781C11.4123 12.1084 11.3373 11.7121 11.3428 11.3129C11.3499 10.5441 11.6569 9.80114 12.1936 9.25035C12.7561 8.67379 13.5085 8.3527 14.3124 8.34332C15.1069 8.33629 15.878 8.64567 16.4452 9.20114C17.0264 9.77067 17.3452 10.5324 17.3452 11.3433C17.3452 12.1449 17.0335 12.8972 16.4663 13.4644C16.188 13.744 15.8571 13.9657 15.4926 14.1165C15.1281 14.2674 14.7373 14.3445 14.3428 14.3433ZM8.47174 11.9621C8.45064 11.7582 8.43893 11.5519 8.43893 11.3433C8.43893 10.9707 8.47408 10.6074 8.53971 10.2535C8.55611 10.1691 8.51158 10.0824 8.43424 10.0472C8.11549 9.90426 7.82252 9.70739 7.5694 9.45895C7.27113 9.16975 7.03642 8.82155 6.88025 8.43656C6.72408 8.05158 6.64987 7.63828 6.66236 7.22301C6.68346 6.47067 6.9858 5.75582 7.51314 5.21676C8.09205 4.62379 8.87018 4.30035 9.69752 4.30973C10.4452 4.31676 11.1671 4.60504 11.7131 5.11598C11.8983 5.28942 12.0577 5.4816 12.1913 5.68785C12.2381 5.76051 12.3296 5.79098 12.4092 5.76285C12.8217 5.61989 13.2577 5.5191 13.7053 5.47223C13.8366 5.45817 13.9116 5.31754 13.853 5.20035C13.0913 3.69332 11.535 2.6527 9.73502 2.62457C7.1358 2.58473 4.97018 4.7152 4.97018 7.30973C4.97018 8.7816 5.64752 10.0941 6.70924 10.9543C5.96393 11.2988 5.27721 11.7746 4.68189 12.3699C3.39752 13.6519 2.67096 15.3441 2.62408 17.1511C2.62346 17.1761 2.62784 17.201 2.63699 17.2243C2.64613 17.2476 2.65984 17.2688 2.67731 17.2868C2.69479 17.3047 2.71567 17.3189 2.73873 17.3286C2.76179 17.3383 2.78656 17.3433 2.81158 17.3433H4.12643C4.22721 17.3433 4.31158 17.2636 4.31393 17.1629C4.35846 15.8035 4.90924 14.5308 5.87721 13.5652C6.56627 12.8761 7.41002 12.398 8.33111 12.166C8.42252 12.1425 8.48346 12.0558 8.47174 11.9621Z" fill="white"/>
</svg>
