<svg width="24" height="24" viewBox="0 0 24 24" fill="none" xmlns="http://www.w3.org/2000/svg">
<path d="M21.6645 7.93029C21.1386 6.67528 20.3736 5.53455 19.4121 4.5717C18.4535 3.60717 17.3147 2.84032 16.0606 2.31467C14.7757 1.77357 13.3953 1.49621 12.0012 1.49905H11.9543C10.5363 1.50608 9.16525 1.78733 7.87384 2.34045C6.63041 2.87149 5.50236 3.63971 4.55275 4.60217C3.60055 5.56286 2.84432 6.69959 2.32618 7.94905C1.78833 9.24833 1.5158 10.6421 1.52462 12.0483C1.53165 13.6748 1.92072 15.2897 2.64728 16.7334V20.2959C2.64728 20.8912 3.13009 21.374 3.72306 21.374H7.28087C8.73136 22.106 10.332 22.4911 11.9567 22.499H12.0059C13.4074 22.499 14.7645 22.2272 16.0442 21.6951C17.292 21.1758 18.4265 20.4178 19.384 19.4639C20.3496 18.5053 21.109 17.385 21.641 16.1358C22.1918 14.842 22.4731 13.4662 22.4801 12.0459C22.4848 10.6186 22.2082 9.23342 21.6645 7.93029ZM7.32306 13.124C6.70431 13.124 6.2004 12.6201 6.2004 11.999C6.2004 11.378 6.70431 10.874 7.32306 10.874C7.94181 10.874 8.44571 11.378 8.44571 11.999C8.44571 12.6201 7.94415 13.124 7.32306 13.124ZM12.0012 13.124C11.3824 13.124 10.8785 12.6201 10.8785 11.999C10.8785 11.378 11.3824 10.874 12.0012 10.874C12.6199 10.874 13.1238 11.378 13.1238 11.999C13.1238 12.6201 12.6199 13.124 12.0012 13.124ZM16.6793 13.124C16.0606 13.124 15.5567 12.6201 15.5567 11.999C15.5567 11.378 16.0606 10.874 16.6793 10.874C17.2981 10.874 17.802 11.378 17.802 11.999C17.802 12.6201 17.2981 13.124 16.6793 13.124Z" fill="#BFBFBF"/>
</svg>
