<svg width="24" height="24" viewBox="0 0 24 24" fill="none" xmlns="http://www.w3.org/2000/svg">
<path d="M21.6328 6.64592C21.3187 5.9185 20.8657 5.25933 20.2992 4.70529C19.7323 4.1496 19.064 3.708 18.3305 3.40451C17.5699 3.08855 16.7541 2.92683 15.9305 2.92873C14.775 2.92873 13.6477 3.24513 12.668 3.84279C12.4336 3.98576 12.2109 4.14279 12 4.31388C11.7891 4.14279 11.5664 3.98576 11.332 3.84279C10.3523 3.24513 9.225 2.92873 8.06953 2.92873C7.2375 2.92873 6.43125 3.0881 5.66953 3.40451C4.93359 3.7092 4.27031 4.14748 3.70078 4.70529C3.13359 5.2587 2.6805 5.91803 2.36719 6.64592C2.04141 7.40295 1.875 8.20685 1.875 9.0342C1.875 9.81466 2.03438 10.6279 2.35078 11.4553C2.61563 12.1467 2.99531 12.8639 3.48047 13.5881C4.24922 14.7342 5.30625 15.9295 6.61875 17.1412C8.79375 19.1498 10.9477 20.5373 11.0391 20.5936L11.5945 20.9498C11.8406 21.1069 12.157 21.1069 12.4031 20.9498L12.9586 20.5936C13.05 20.535 15.2016 19.1498 17.3789 17.1412C18.6914 15.9295 19.7484 14.7342 20.5172 13.5881C21.0023 12.8639 21.3844 12.1467 21.6469 11.4553C21.9633 10.6279 22.1227 9.81466 22.1227 9.0342C22.125 8.20685 21.9586 7.40295 21.6328 6.64592Z" fill="#096DD9"/>
</svg>
