<svg width="32" height="32" viewBox="0 0 32 32" fill="none" xmlns="http://www.w3.org/2000/svg">
<rect x="0.5" y="0.5" width="31" height="31" rx="15.5" fill="white"/>
<path d="M22.2493 10.9688H21.1571C21.004 10.9688 20.8587 11.0391 20.7649 11.1594L14.3227 19.3203L11.2337 15.4062C11.1869 15.3469 11.1274 15.2989 11.0594 15.2659C10.9915 15.2329 10.917 15.2157 10.8415 15.2156H9.74928C9.64459 15.2156 9.58678 15.3359 9.65084 15.4172L13.9305 20.8391C14.1305 21.0922 14.5149 21.0922 14.7165 20.8391L22.3477 11.1688C22.4118 11.0891 22.354 10.9688 22.2493 10.9688Z" fill="#1890FF"/>
<rect x="0.5" y="0.5" width="31" height="31" rx="15.5" stroke="#1890FF"/>
</svg>
