<svg width="32" height="32" viewBox="0 0 32 32" fill="none" xmlns="http://www.w3.org/2000/svg">
<rect x="0.5" y="0.5" width="31" height="31" rx="15.5" fill="white"/>
<path d="M16.8095 16L20.9111 11.1109C20.9798 11.0297 20.922 10.9062 20.8158 10.9062H19.5689C19.4954 10.9062 19.4251 10.9391 19.3767 10.9953L15.9939 15.0281L12.6111 10.9953C12.5642 10.9391 12.4939 10.9062 12.4189 10.9062H11.172C11.0658 10.9062 11.0079 11.0297 11.0767 11.1109L15.1783 16L11.0767 20.8891C11.0613 20.9072 11.0514 20.9293 11.0482 20.9529C11.045 20.9764 11.0487 21.0004 11.0587 21.022C11.0687 21.0435 11.0848 21.0617 11.1048 21.0745C11.1249 21.0872 11.1482 21.0939 11.172 21.0938H12.4189C12.4923 21.0938 12.5626 21.0609 12.6111 21.0047L15.9939 16.9719L19.3767 21.0047C19.4236 21.0609 19.4939 21.0938 19.5689 21.0938H20.8158C20.922 21.0938 20.9798 20.9703 20.9111 20.8891L16.8095 16Z" fill="#FF4D4F"/>
<rect x="0.5" y="0.5" width="31" height="31" rx="15.5" stroke="#FF4D4F"/>
</svg>
