<svg width="40" height="40" viewBox="0 0 40 40" fill="none" xmlns="http://www.w3.org/2000/svg">
<path d="M12.2582 13.4191L13.4183 12.259C13.5214 12.1558 13.6245 12.1558 13.7276 12.259L27.3394 25.8708C27.4426 25.9739 27.4426 26.077 27.3394 26.1801L26.1794 27.3402C26.0762 27.4433 25.9731 27.4433 25.87 27.3402L12.2582 13.7284C12.1551 13.6253 12.1551 13.5222 12.2582 13.4191Z" fill="#FF4D4F"/>
<path d="M12.5675 25.5614L25.5606 12.5683C25.6638 12.4652 25.7669 12.4652 25.87 12.5683L27.0301 13.7284C27.1332 13.8315 27.1332 13.9347 27.0301 14.0378L14.037 27.0309C13.9339 27.134 13.8308 27.134 13.7276 27.0309L12.5675 25.8708C12.4644 25.7676 12.4644 25.6645 12.5675 25.5614Z" fill="#FF4D4F"/>
</svg>
