<svg width="28" height="28" viewBox="0 0 40 40" fill="none" xmlns="http://www.w3.org/2000/svg">
<path d="M26.0429 19.7479L16.4335 12.7948C16.3868 12.7609 16.3317 12.7405 16.2741 12.7361C16.2166 12.7316 16.1589 12.7432 16.1076 12.7695C16.0562 12.7957 16.0131 12.8358 15.9831 12.885C15.9531 12.9343 15.9373 12.991 15.9375 13.0487V14.8807C15.9375 15.2791 16.1289 15.658 16.4531 15.8924L22.1328 20.0018L16.4531 24.1111C16.1289 24.3455 15.9375 24.7205 15.9375 25.1228V26.9549C15.9375 27.2088 16.2265 27.3572 16.4335 27.2088L26.0429 20.2557C26.2148 20.1307 26.2148 19.8729 26.0429 19.7479Z" fill="white"/>
<path d="M20 2.5C10.3359 2.5 2.5 10.3359 2.5 20C2.5 29.6641 10.3359 37.5 20 37.5C29.6641 37.5 37.5 29.6641 37.5 20C37.5 10.3359 29.6641 2.5 20 2.5ZM20 34.5312C11.9766 34.5312 5.46875 28.0234 5.46875 20C5.46875 11.9766 11.9766 5.46875 20 5.46875C28.0234 5.46875 34.5312 11.9766 34.5312 20C34.5312 28.0234 28.0234 34.5312 20 34.5312Z" fill="white"/>
</svg>
