<svg width="34" height="43" viewBox="0 0 34 43" fill="none" xmlns="http://www.w3.org/2000/svg">
<path d="M32.0984 19.6051C31.1884 17.5569 29.8655 15.7186 28.2125 14.2051L26.8484 12.9536C26.8021 12.9122 26.7464 12.8829 26.6861 12.8681C26.6258 12.8534 26.5628 12.8537 26.5026 12.8689C26.4425 12.8842 26.387 12.914 26.341 12.9557C26.2951 12.9975 26.2601 13.0498 26.2391 13.1082L25.6297 14.8567C25.25 15.9536 24.5516 17.0739 23.5625 18.1754C23.4969 18.2457 23.4219 18.2645 23.3703 18.2692C23.3188 18.2739 23.2391 18.2645 23.1687 18.1989C23.1031 18.1426 23.0703 18.0582 23.075 17.9739C23.2484 15.152 22.4047 11.9692 20.5578 8.50512C19.0297 5.62699 16.9062 3.38168 14.2531 1.81606L12.3172 0.676995C12.0641 0.526995 11.7406 0.72387 11.7547 1.01918L11.8578 3.26918C11.9281 4.80668 11.75 6.16606 11.3281 7.29574C10.8125 8.67856 10.0719 9.96293 9.125 11.1161C8.46604 11.9174 7.71918 12.6423 6.89844 13.277C4.92174 14.7965 3.31444 16.7436 2.19687 18.9723C1.08207 21.2205 0.50136 23.6957 0.5 26.2051C0.5 28.4176 0.935937 30.5598 1.79844 32.5801C2.63125 34.5253 3.83309 36.2906 5.3375 37.7786C6.85625 39.2786 8.61875 40.4598 10.5828 41.2801C12.6172 42.1332 14.7734 42.5645 17 42.5645C19.2266 42.5645 21.3828 42.1332 23.4172 41.2848C25.3764 40.4693 27.158 39.28 28.6625 37.7832C30.1812 36.2832 31.3719 34.5301 32.2016 32.5848C33.0628 30.57 33.5046 28.4009 33.5 26.2098C33.5 23.9223 33.0312 21.7004 32.0984 19.6051Z" fill="#1890FF"/>
</svg>
