<?xml version="1.0" encoding="UTF-8"?><svg id="_Слой_1" xmlns="http://www.w3.org/2000/svg" viewBox="0 0 506.78 73.67"><defs><style>.cls-1{fill:#fff;}</style></defs><g><path class="cls-1" d="M24.52,23.34c-2.5,.52-4.74,.97-6.98,1.45-1.61,.35-3.31-.85-3.29-2.5,0-.39,.6-1.01,1.03-1.12,2.85-.75,5.7-1.53,8.6-2,1.39-.22,2.05-.73,2.24-2.03,.04-.23,.18-.45,.43-1.07,1.17,.68,2.23,1.31,3.31,1.91,.27,.15,.62,.25,.93,.24,1.25-.07,2.49-.21,3.74-.3,1.87-.13,3.75-.25,5.04,2.01,.35-1.54,.62-2.76,.91-3.98,.27-1.11,.75-1.93,2.15-1.72,1.72,.26,2.91,1.18,2.76,2.55-.21,1.92-.72,3.81-.99,5.73-1.02,7.15-1.99,14.31-2.97,21.47-.02,.13,.07,.26,.23,.8,.33-.75,.54-1.19,.73-1.65,1.57-3.88,3.12-7.76,4.7-11.64,.24-.6,.59-1.15,.94-1.7,1.54-2.43,2.66-2.68,5.21-1.29,.94,.52,1.45,1.18,1.25,2.29-.56,3.19-1.18,6.37-1.66,9.57-.42,2.81-.77,5.63-1,8.46-.08,1.06,.12,2.21,.48,3.21,.58,1.61,2.29,2,3.29,.67,.89-1.18,1.77-2.66,1.89-4.07,.56-6.47,1.73-12.75,4.85-18.52,.61-1.12,1.43-2.18,2.35-3.07,1.64-1.57,4.03-1.32,5.36,.54,.56,.79,1.04,1.77,1.15,2.71,.5,4.11,.19,8.16-1.43,12.04-.23,.55-.54,1.07-.89,1.55-1.95,2.65-4.6,2.75-6.96,0-.63,3.32-1.46,6.4-.4,9.52,.67,1.96,3.12,2.6,5.23,1.53,2.02-1.02,3.31-2.76,4.19-4.74,.66-1.48,.97-3.12,1.48-4.67,.12-.38,.42-1,.61-.99,.43,.02,1.04,.27,1.21,.61,.33,.64,.59,1.42,.55,2.13-.18,3.29-1.03,6.4-3.01,9.11-3.53,4.85-9.72,4.47-12.66-.78-.31-.56-.57-1.15-.8-1.62-1.19,.76-2.28,1.68-3.54,2.21-2.75,1.14-5.03,.23-6.43-2.4-1.52-2.86-1.61-5.94-1.22-9.04,.3-2.37,.76-4.72,1.15-7.08,.04-.27,.05-.54-.24-.95-.29,.46-.65,.89-.87,1.39-2.4,5.56-4.31,11.26-5.17,17.28-.26,1.8-1.03,2.23-2.74,1.55-1.9-.75-2.91-2.38-2.72-4.5,.86-9.69,1.73-19.37,2.6-29.05,.03-.34,0-.69,0-1.11-1.39,0-2.77-.05-4.14,.01-1.6,.07-3.19,.29-4.79,.37-.97,.05-1.36,.47-1.5,1.42-.92,6.26-1.93,12.52-2.84,18.78-.44,3.05-.74,6.12-1.12,9.33,.65-.08,1.11-.14,1.84-.24-.12,.71-.13,1.34-.35,1.9-.4,1.02-.9,2-1.41,2.97-1.01,1.91-3.87,2.04-5.04,.2-.23-.36-.19-.96-.12-1.43,1.52-10.25,3.06-20.51,4.6-30.76,.06-.39,.11-.77,.21-1.48Zm42.73,5.71c-.17-.02-.33-.04-.5-.06-.28,.5-.64,.97-.82,1.5-1,3.06-2,6.13-2.91,9.22-.3,1.02-.71,2.39,.69,2.83,1.4,.44,1.82-.97,2.22-1.92,1.39-3.26,1.79-6.7,1.63-10.21-.02-.46-.21-.91-.31-1.36Z"/><path class="cls-1" d="M127.81,56.16c-3.54,.67-6.75-2.36-5.51-5.43,1.24-3.05,.07-5.99,.83-9.35-3.14,.47-5.93,.85-8.7,1.35-.31,.06-.63,.74-.74,1.18-1.23,4.82-2.48,9.64-3.57,14.5-.28,1.24-.81,1.48-1.83,1.24-.63-.15-1.22-.44-1.82-.67-.97-.37-1.41-1.02-1.13-2.09,1-3.85,1.95-7.72,2.99-11.56,.23-.83,.31-1.34-.43-2.04-.66-.63-.9-1.7-1.4-2.74-.77,.09-1.7,.19-2.79,.31,.29,.53,.51,.94,.75,1.36,3.14,5.47-1.12,14.77-7.33,15.96-4.08,.78-7.77-.83-9.99-4.46-2.51-4.11-2.89-8.68-2.48-13.3,.54-6.02,2.18-11.76,5.21-17.03,.98-1.71,2.26-3.3,3.63-4.72,1.79-1.84,4.05-2.89,6.66-1.92,2.72,1,4.27,3.18,4.72,5.93,.51,3.16-.25,6.16-2.07,8.82-.99,1.45-1.62,1.51-3.1,.5-1.73-1.17-1.85-1.56-.91-3.07,1.26-2.02,2.26-4.17,2.02-6.6-.08-.79-.68-1.81-1.35-2.18-.48-.26-1.76,.15-2.17,.66-1.5,1.91-2.99,3.88-4.09,6.03-2.79,5.48-4.45,11.33-4.65,17.5-.07,2,.22,4.1,.8,6.03,.93,3.11,3.08,4.09,6.2,3.25,4.43-1.2,7.28-6.92,5.63-11.21-.34-.87-.77-1.17-1.69-.87-.71,.23-1.47,.28-2.2,.46-1.15,.29-1.92-.18-2.52-1.12-1.08-1.71-.49-3.04,1.51-3.31,2.31-.32,4.65-.46,6.93-.94,2.72-.58,4.73,.07,5.89,2.6,1.27,.1,1.77-.55,2.2-1.52,2.96-6.72,6.16-13.32,11.08-18.9,.69-.78,1.52-1.44,2.27-2.17,.97-.96,2.04-.86,3.18-.38,.97,.41,1.31,1.02,1.09,2.12-2.04,10.55-2.14,21.21-1.53,31.89,.11,1.94,.27,3.87,.41,5.88Zm-11.79-18.54c2.46,.02,4.85-1.18,6.88,.9,.55-5.54,1.06-10.68,1.57-15.81-3.55,4.53-6.18,9.51-8.45,14.91Z"/><path class="cls-1" d="M163.29,59.34c-1.01,0-1.86,.09-2.68-.02-1.53-.21-2.56-.97-2.7-2.67-.41-5.27-1.02-10.52-1.27-15.8-.24-5.03-.12-10.08-.16-15.12,0-.44,0-.87-.24-1.38-.11,.19-.25,.37-.34,.57-3.24,7.96-6.16,16.01-7.5,24.54-.24,1.52-.38,3.07-.44,4.61-.04,1.06-.5,1.41-1.49,1.37-1.69-.06-3.06-1.09-3.22-2.57-.84-7.99-1.62-15.99-1.2-24.04,.06-1.08,.16-2.15-.06-3.35-.3,.53-.64,1.05-.88,1.61-3.51,8.11-5.63,16.6-6.94,25.3-.09,.63,.42,1.35,.64,2.02,.23,0,.45,0,.68,0-.66,1.59-1.31,3.19-2.01,4.77-.1,.22-.43,.42-.69,.49-1.7,.42-3.83-1.27-3.67-2.99,1.15-12.28,4.29-24.02,9.88-35.05,.85-1.67,2.09-3.16,3.22-4.67,.55-.73,1.25-1.34,2.3-.76,1,.55,1.8,1.12,1.68,2.51-.65,7.58-.36,15.15,.24,22.72,.03,.33,.1,.66,.48,1.08,.16-.51,.32-1.02,.49-1.53,2.59-7.7,5.17-15.39,7.79-23.08,.27-.79,.7-1.54,1.12-2.28,1.1-1.92,2.47-2.27,4.3-.96,.39,.28,.57,1.09,.57,1.65-.06,6.43-.5,12.89-.18,19.3,.38,7.51,1.41,14.98,2.16,22.47,.03,.34,.07,.68,.12,1.25Z"/><path class="cls-1" d="M182.54,24.12c.23-.67,.42-1.22,.74-2.12-2.77,.52-5.31,.99-7.83,1.5-.21,.04-.46,.39-.51,.64-.75,3.34-1.47,6.68-2.22,10.17,2.02-.12,3.75-.2,5.47-.33,1.73-.13,2.7,1.05,3.48,2.22,.65,.96-.13,1.34-1.11,1.46-2.48,.3-4.95,.65-7.42,1.06-.38,.06-.97,.52-1,.84-.4,3.86-.72,7.72-1.08,11.82,2.55-.59,4.84-1.2,7.16-1.63,1.96-.37,3.95-.6,5.94-.76,1.38-.11,3.24,1.9,2.99,3.25-.06,.32-.85,.64-1.34,.74-4.46,.83-8.94,1.63-13.41,2.39-.96,.16-1.56,.44-1.52,1.59,.01,.28-.73,.89-.99,.82-1.38-.35-2.76-.79-4.07-1.36-.5-.21-.88-.8-1.21-1.28-.64-.92-.59-1.71,.7-1.94,1.06-.19,1.38-.75,1.44-1.82,.21-3.73,.55-7.45,.85-11.26-.34-.16-.8-.22-1.01-.49-.54-.67-1.16-1.39-1.34-2.18-.07-.28,.96-1.05,1.59-1.22,1.18-.31,1.5-.99,1.67-2.11,.47-3.05,1.08-6.07,1.66-9.28-.51,.1-.99,.31-1.44,.25-.73-.1-1.62-.18-2.13-.63-1.65-1.47-1.43-2.32,.61-3.07,.19-.07,.37-.15,.56-.21,1.19-.38,2.6-.48,3.51-1.21,.89-.7,1.26-2.05,1.93-3.24,1.28,.32,2.96-.06,3.45,1.94,1.96-.26,3.94-.54,5.91-.78,2.11-.25,3.87,.32,5,2.24,.16,.28,.35,.66,.28,.94-.26,1.08-3.83,3.18-5.32,3.04Z"/></g><g><path class="cls-1" d="M234.19,66.61v-10.63h-29v10.63h-2.6v-13.11h3.02c1.28-2.66,2.51-5.53,3.67-8.63,1.16-3.1,2.18-6.27,3.07-9.52s1.6-6.49,2.15-9.74c.55-3.24,.85-6.35,.9-9.3h16.07V53.5h5.23v13.11h-2.5Zm-5.28-47.78h-11.13c-.05,1.55-.21,3.23-.47,5.05-.26,1.82-.6,3.72-1.01,5.7-.42,1.98-.9,4.01-1.46,6.09-.56,2.08-1.17,4.14-1.85,6.2-.68,2.06-1.4,4.07-2.17,6.03-.77,1.96-1.57,3.83-2.41,5.6h20.49V18.83Z"/><path class="cls-1" d="M253.21,56.52c-2.12,0-4.02-.37-5.72-1.11-1.7-.74-3.15-1.77-4.36-3.1-1.21-1.33-2.13-2.92-2.78-4.77-.65-1.85-.98-3.89-.98-6.1,0-2.36,.33-4.5,1-6.43,.67-1.93,1.63-3.58,2.87-4.95s2.76-2.43,4.54-3.18,3.78-1.12,6-1.12c2.01,0,3.84,.36,5.5,1.09,1.66,.73,3.08,1.75,4.27,3.06s2.11,2.88,2.76,4.7c.65,1.83,.98,3.85,.98,6.06,0,2.45-.33,4.66-1,6.61-.67,1.95-1.61,3.62-2.84,4.99-1.22,1.37-2.7,2.43-4.43,3.15-1.73,.73-3.67,1.09-5.8,1.09Zm.23-28.53c-1.66,0-3.2,.32-4.62,.97-1.41,.65-2.63,1.55-3.64,2.71-1.01,1.16-1.81,2.55-2.38,4.16-.57,1.62-.86,3.4-.86,5.36s.26,3.79,.79,5.4c.53,1.6,1.28,2.98,2.26,4.11,.98,1.13,2.16,2.01,3.55,2.63,1.39,.62,2.93,.93,4.63,.93,1.79,0,3.39-.3,4.81-.91,1.42-.61,2.63-1.48,3.63-2.61,1-1.13,1.76-2.52,2.3-4.16,.54-1.64,.81-3.5,.81-5.56s-.26-3.85-.79-5.46c-.53-1.62-1.28-2.98-2.26-4.1-.98-1.12-2.16-1.97-3.55-2.56-1.39-.59-2.95-.89-4.68-.89Z"/><path class="cls-1" d="M294.53,55.02c-1.11,.5-2.35,.87-3.73,1.12s-2.75,.37-4.12,.37c-2.12,0-4.05-.36-5.8-1.08-1.75-.72-3.26-1.73-4.54-3.03-1.27-1.3-2.26-2.86-2.97-4.68-.7-1.82-1.05-3.82-1.05-6.02,0-2.42,.39-4.61,1.16-6.57,.77-1.96,1.84-3.64,3.21-5.04s3-2.47,4.88-3.22c1.88-.76,3.92-1.13,6.13-1.13,2.38,0,4.66,.36,6.84,1.08v2.57c-2.18-.94-4.47-1.41-6.87-1.41-1.92,0-3.67,.32-5.24,.97-1.57,.65-2.91,1.56-4.03,2.74-1.12,1.18-1.98,2.6-2.59,4.26s-.91,3.51-.91,5.56,.29,3.72,.87,5.29c.58,1.57,1.4,2.9,2.44,4.01,1.05,1.11,2.31,1.96,3.78,2.55,1.47,.59,3.09,.89,4.86,.89,2.88,0,5.44-.53,7.67-1.61v2.38Z"/><path class="cls-1" d="M309.31,28.51v27.48h-2.5V28.51h-8.74v-2.27h19.97v2.27h-8.74Z"/><path class="cls-1" d="M323.29,55.99V26.25h2.5v22.97c0,.35,0,.73-.03,1.15-.02,.42-.04,.86-.08,1.34h.1c.24-.37,.47-.71,.69-1.04,.22-.32,.42-.61,.61-.87l17.32-23.55h2.26v29.74h-2.5V31.67c0-.26,0-.5,.01-.72,0-.22,.02-.43,.04-.61h-.1c-.28,.46-.51,.83-.7,1.11s-.38,.53-.57,.78l-17.43,23.77h-2.13Z"/><path class="cls-1" d="M383.19,55.99l-12.74-14.22c-.09-.09-.18-.19-.27-.3-.1-.11-.19-.24-.27-.39h-.08v14.91h-2.37v-14.91h-.1c-.09,.15-.18,.27-.29,.39-.1,.11-.19,.21-.26,.3l-12.8,14.22h-3.28l13.99-15.49-13.16-14.25h3.04l12.17,13.28c.07,.09,.16,.21,.27,.35,.11,.14,.21,.27,.3,.4h.1v-14.03h2.37v14.03h.08c.07-.13,.17-.26,.3-.4,.13-.14,.23-.25,.3-.35l12.07-13.28h3.1l-13.19,14.25,14.04,15.49h-3.33Z"/><path class="cls-1" d="M390.59,55.99V26.25h14.46v2.27h-11.96v11.35h11.08v2.27h-11.08v11.62h12.67v2.24h-15.16Z"/><path class="cls-1" d="M432.42,55.99v-14.08h-16.98v14.08h-2.5V26.25h2.5v13.42h16.98v-13.42h2.5v29.74h-2.5Z"/><path class="cls-1" d="M443.49,55.99V26.25h2.5v22.97c0,.35,0,.73-.03,1.15-.02,.42-.04,.86-.08,1.34h.1c.24-.37,.47-.71,.69-1.04,.22-.32,.42-.61,.61-.87l17.32-23.55h2.26v29.74h-2.5V31.67c0-.26,0-.5,.01-.72,0-.22,.02-.43,.04-.61h-.1c-.28,.46-.51,.83-.7,1.11-.19,.28-.38,.53-.57,.78l-17.43,23.77h-2.13Z"/><path class="cls-1" d="M490.05,55.99v-13.14h-4.16c-.82,0-1.5,.11-2.05,.32s-1.04,.51-1.46,.9c-.42,.39-.79,.86-1.12,1.42-.33,.56-.66,1.19-.99,1.87l-4.08,8.63h-2.78l4.55-9.41c.64-1.27,1.29-2.24,1.95-2.89,.66-.65,1.34-1.13,2.05-1.42v-.08c-.92-.13-1.81-.39-2.67-.79-.86-.4-1.62-.92-2.28-1.56-.66-.64-1.19-1.42-1.59-2.33-.4-.9-.6-1.95-.6-3.12,0-.96,.18-1.92,.53-2.89,.35-.97,.91-1.84,1.68-2.61,.76-.78,1.75-1.41,2.95-1.9,1.2-.49,2.67-.73,4.38-.73h8.14v29.74h-2.47Zm0-27.48h-5.44c-1.42,0-2.6,.17-3.52,.51-.93,.34-1.66,.79-2.21,1.34-.55,.55-.93,1.18-1.14,1.88-.22,.7-.32,1.41-.32,2.13,0,2.05,.68,3.59,2.04,4.63,1.36,1.04,3.21,1.56,5.55,1.56h5.05v-12.07Z"/></g></svg>