<svg width="57" height="57" viewBox="0 0 57 57" fill="none" xmlns="http://www.w3.org/2000/svg">
<path d="M17.512 19.1687L19.1693 17.5114C19.3166 17.3641 19.4639 17.3641 19.6112 17.5114L39.0566 36.9568C39.2039 37.1042 39.2039 37.2515 39.0566 37.3988L37.3994 39.0561C37.252 39.2034 37.1047 39.2034 36.9574 39.0561L17.512 19.6106C17.3647 19.4633 17.3647 19.316 17.512 19.1687Z" fill="#BFBFBF"/>
<path d="M17.9539 36.5149L36.5155 17.9534C36.6628 17.806 36.8101 17.806 36.9574 17.9534L38.6147 19.6106C38.762 19.7579 38.762 19.9053 38.6147 20.0526L20.0531 38.6141C19.9058 38.7614 19.7585 38.7614 19.6112 38.6141L17.9539 36.9568C17.8066 36.8095 17.8066 36.6622 17.9539 36.5149Z" fill="#BFBFBF"/>
</svg>
