<svg width="24" height="24" viewBox="0 0 24 24" fill="none" xmlns="http://www.w3.org/2000/svg">
<path d="M21.2841 8.27462L15.3333 7.40977L12.6731 2.01681C12.6005 1.86915 12.4809 1.74962 12.3333 1.67696C11.963 1.49415 11.513 1.64649 11.3278 2.01681L8.66766 7.40977L2.71688 8.27462C2.55282 8.29806 2.40281 8.3754 2.28797 8.49259C2.14913 8.63529 2.07262 8.82728 2.07526 9.02636C2.0779 9.22544 2.15946 9.41533 2.30203 9.55431L6.6075 13.752L5.59031 19.6793C5.56646 19.8172 5.58172 19.959 5.63436 20.0886C5.687 20.2183 5.77491 20.3306 5.88813 20.4128C6.00135 20.4951 6.13535 20.5439 6.27492 20.5539C6.4145 20.5638 6.55407 20.5345 6.67781 20.4692L12.0005 17.6707L17.3231 20.4692C17.4684 20.5465 17.6372 20.5723 17.7989 20.5441C18.2067 20.4738 18.4809 20.0871 18.4106 19.6793L17.3934 13.752L21.6989 9.55431C21.8161 9.43946 21.8934 9.28946 21.9169 9.1254C21.9802 8.71524 21.6942 8.33556 21.2841 8.27462Z" fill="#262626"/>
</svg>
