<svg width="32" height="32" viewBox="0 0 32 32" fill="none" xmlns="http://www.w3.org/2000/svg">
<rect width="32" height="32" rx="16" fill="#1890FF"/>
<path d="M11.8438 21.0684C12.3359 21.0684 12.7324 20.665 12.7324 20.1797C12.7324 19.6875 12.3359 19.291 11.8438 19.291C11.3584 19.291 10.9551 19.6875 10.9551 20.1797C10.9551 20.665 11.3584 21.0684 11.8438 21.0684ZM16 21.0684C16.4922 21.0684 16.8887 20.665 16.8887 20.1797C16.8887 19.6875 16.4922 19.291 16 19.291C15.5146 19.291 15.1113 19.6875 15.1113 20.1797C15.1113 20.665 15.5146 21.0684 16 21.0684ZM20.1562 21.0684C20.6484 21.0684 21.0449 20.665 21.0449 20.1797C21.0449 19.6875 20.6484 19.291 20.1562 19.291C19.6709 19.291 19.2676 19.6875 19.2676 20.1797C19.2676 20.665 19.6709 21.0684 20.1562 21.0684Z" fill="white"/>
</svg>
