<svg width="49" height="48" viewBox="0 0 49 48" fill="none" xmlns="http://www.w3.org/2000/svg">
<path d="M41.9929 20.9197L41.9836 20.8822L36.7242 7.51816C36.4898 6.76348 35.7914 6.24316 34.9992 6.24316H13.6804C12.8836 6.24316 12.1757 6.77285 11.9507 7.53691L7.03355 20.765L7.01949 20.7979L7.01012 20.8354C6.94918 21.065 6.93043 21.2994 6.96324 21.5291C6.95855 21.6041 6.95387 21.6791 6.95387 21.7541V38.9057C6.95511 39.6611 7.25577 40.3853 7.78998 40.9195C8.32419 41.4538 9.04838 41.7544 9.80387 41.7557H39.2039C40.7742 41.7557 42.0539 40.476 42.0586 38.9057V21.7541C42.0586 21.6932 42.0586 21.6322 42.0539 21.5807C42.0726 21.351 42.0539 21.1307 41.9929 20.9197ZM28.1273 18.9041L28.1132 19.64C28.0757 21.7447 26.6226 23.1604 24.4992 23.1604C23.4632 23.1604 22.5726 22.8275 21.9304 22.1947C21.2882 21.5619 20.9367 20.6807 20.9179 19.64L20.9039 18.9041H11.257L14.9836 9.84316H33.6961L37.5257 18.9041H28.1273ZM10.5492 22.5041H17.9226C19.0617 25.1807 21.4851 26.7604 24.5039 26.7604C26.0836 26.7604 27.5507 26.3197 28.7367 25.4853C29.7773 24.7541 30.5882 23.7322 31.1132 22.5041H38.4492V38.1557H10.5492V22.5041Z" fill="#40A9FF"/>
</svg>
