<svg width="28" height="28" viewBox="0 0 28 28" fill="none" xmlns="http://www.w3.org/2000/svg">
<path d="M18.23 13.8235L11.5035 8.95633C11.4708 8.9326 11.4322 8.91838 11.3919 8.91525C11.3516 8.91213 11.3113 8.92021 11.2753 8.93862C11.2393 8.95702 11.2092 8.98503 11.1882 9.01953C11.1671 9.05402 11.1561 9.09367 11.1562 9.13406V10.4165C11.1562 10.6954 11.2902 10.9606 11.5172 11.1247L15.4929 14.0012L11.5172 16.8778C11.2902 17.0418 11.1562 17.3043 11.1562 17.586V18.8684C11.1562 19.0461 11.3586 19.15 11.5035 19.0461L18.23 14.179C18.3504 14.0915 18.3504 13.911 18.23 13.8235Z" fill="#262626"/>
<path d="M14 1.75C7.23516 1.75 1.75 7.23516 1.75 14C1.75 20.7648 7.23516 26.25 14 26.25C20.7648 26.25 26.25 20.7648 26.25 14C26.25 7.23516 20.7648 1.75 14 1.75ZM14 24.1719C8.38359 24.1719 3.82812 19.6164 3.82812 14C3.82812 8.38359 8.38359 3.82812 14 3.82812C19.6164 3.82812 24.1719 8.38359 24.1719 14C24.1719 19.6164 19.6164 24.1719 14 24.1719Z" fill="#262626"/>
</svg>
